<svg id="Layer_1" data-name="Layer 1" xmlns="http://www.w3.org/2000/svg" viewBox="0 0 291.08 268.73"><defs><style>.cls-1{fill:none;stroke:#231f20;stroke-miterlimit:10;}</style></defs><path class="cls-1" d="M288.41.5H229.19a29.22,29.22,0,0,1-21.35,49.18H176.19L200.9.5H76.67L44.21,65.33h57L82.43,103.25,56.24,156.2,27.32,214.65l-24.24,49L.81,268.23H160.73a80.88,80.88,0,0,0,80.88-80.88v-3.22a80.88,80.88,0,0,0-80.88-80.88h49a80.88,80.88,0,0,0,80.88-80.88V19.16A80.83,80.83,0,0,0,288.41.5ZM188.09,185.42a29.23,29.23,0,0,1-29.22,29.23H93.29l29.37-58.45h36.21A29.22,29.22,0,0,1,188.09,185.42Z"/></svg>