<svg id="Layer_1" data-name="Layer 1" xmlns="http://www.w3.org/2000/svg" viewBox="0 0 289.77 267.73"><defs><style>.cls-1{fill:#19c2ed;}</style></defs><path class="cls-1" d="M287.61,0H228.39A29.23,29.23,0,0,1,207,49.18H175.39L200.1,0H75.86L43.4,64.83h57L81.62,102.75,55.43,155.7,26.51,214.15l-24.24,49L0,267.73H159.92a80.88,80.88,0,0,0,80.88-80.88v-3.22a80.88,80.88,0,0,0-80.88-80.88h49a80.87,80.87,0,0,0,80.88-80.88V18.66A81.38,81.38,0,0,0,287.61,0ZM187.29,184.92a29.23,29.23,0,0,1-29.23,29.23H92.49l29.37-58.45h36.2A29.22,29.22,0,0,1,187.29,184.92Z"/></svg>