<svg id="Layer_1" data-name="Layer 1" xmlns="http://www.w3.org/2000/svg" xmlns:xlink="http://www.w3.org/1999/xlink" viewBox="0 0 319.66 288.57"><defs><style>.cls-1{fill:url(#linear-gradient);}</style><linearGradient id="linear-gradient" x1="164.93" y1="130.19" x2="-47.97" y2="536.11" gradientUnits="userSpaceOnUse"><stop offset="0" stop-color="#1843df"/><stop offset="0.61" stop-color="#1232bd"/><stop offset="1" stop-color="#0f29ac"/></linearGradient></defs><path class="cls-1" d="M300.22,15.32H241A29.23,29.23,0,0,1,219.65,64.5H188l24.71-49.18H88.48L56,80.15h57L94.24,118.07,68,171,39.13,229.47l-24.24,49-2.28,4.59H172.53a80.88,80.88,0,0,0,80.88-80.88V199a80.87,80.87,0,0,0-80.88-80.88h49a80.87,80.87,0,0,0,80.87-80.88V34A80.83,80.83,0,0,0,300.22,15.32ZM199.9,200.24a29.23,29.23,0,0,1-29.22,29.23H105.1L134.47,171h36.21A29.22,29.22,0,0,1,199.9,200.24Z"/></svg>