<svg id="Layer_1" data-name="Layer 1" xmlns="http://www.w3.org/2000/svg" xmlns:xlink="http://www.w3.org/1999/xlink" viewBox="0 0 613.27 135.98"><defs><style>.cls-1{fill:url(#linear-gradient);}.cls-2{font-size:106.91px;font-family:Fractul-MediumItalic, Fractul;font-weight:500;font-style:italic;letter-spacing:-0.04em;}.cls-3{letter-spacing:-0.02em;}.cls-4,.cls-5,.cls-6,.cls-7{font-family:Fractul-LightItalic, Fractul;font-weight:300;}.cls-4{letter-spacing:-0.02em;}.cls-5{letter-spacing:-0.02em;}.cls-6,.cls-7{font-size:61.49px;}.cls-6{letter-spacing:-0.04em;}.cls-7{letter-spacing:-0.02em;}</style><linearGradient id="linear-gradient" x1="77.36" y1="58.34" x2="-30.77" y2="264.5" gradientUnits="userSpaceOnUse"><stop offset="0" stop-color="#1843df"/><stop offset="0.61" stop-color="#1232bd"/><stop offset="1" stop-color="#0f29ac"/></linearGradient></defs><path class="cls-1" d="M146.07,0H116a14.84,14.84,0,0,1-10.84,25H89.08L101.63,0H38.53L22,32.93H51L41.45,52.19,28.15,79.08,13.47,108.76,1.15,133.65,0,136H81.22A41.08,41.08,0,0,0,122.3,94.9V93.26A41.08,41.08,0,0,0,81.22,52.19h24.87a41.08,41.08,0,0,0,41.08-41.08V9.48A41.13,41.13,0,0,0,146.07,0ZM95.12,93.92a14.83,14.83,0,0,1-14.84,14.84H47L61.89,79.08H80.28A14.83,14.83,0,0,1,95.12,93.92Z"/><text class="cls-2" transform="translate(156.59 108.76)">Z<tspan class="cls-3" x="61.48" y="0">ee</tspan><tspan class="cls-4" x="188.06" y="0">bil</tspan><tspan class="cls-5" x="302.99" y="0">l</tspan><tspan class="cls-4" x="328.33" y="0">s</tspan><tspan class="cls-6" x="371.09" y="0">.</tspan><tspan class="cls-7" x="382.28" y="0">co</tspan></text></svg>